<svg viewBox="0 0 512 512" xmlns="http://www.w3.org/2000/svg" fill-rule="evenodd" clip-rule="evenodd" stroke-linejoin="round" stroke-miterlimit="2"><path d="M256.002 6.005C117.936 6.005 6 117.927 6 255.997c0 138.066 111.936 249.997 250.002 249.997s249.997-111.93 249.997-249.997c0-138.07-111.936-249.992-249.997-249.992zm0 467.89c-39.283 0-71.131-26.242-71.131-58.602h142.262c0 32.356-31.849 58.601-71.131 58.601zm117.49-78.01H138.502v-42.608h234.988v42.608zm-.848-64.54h-233.47c-.777-.895-1.57-1.777-2.32-2.686-24.054-29.206-29.718-44.453-35.22-59.991-.093-.512 29.166 5.978 49.915 10.645 0 0 10.676 2.47 26.285 5.317-14.987-17.568-23.885-39.9-23.885-62.727 0-50.113 38.435-93.904 24.569-129.3 13.495 1.099 27.93 28.482 28.906 71.299 14.347-19.827 20.351-56.034 20.351-78.234 0-22.985 15.146-49.685 30.296-50.599-13.505 22.258 3.498 41.339 18.613 88.672 5.67 17.78 4.946 47.7 9.322 66.675 1.452-39.41 8.228-96.913 33.23-116.766-11.03 25.002 1.632 56.285 10.292 71.325 13.972 24.265 22.443 42.649 22.443 77.418 0 23.312-8.608 45.26-23.127 62.417 16.51-3.097 27.91-5.89 27.91-5.89l53.61-10.46c.005-.004-7.786 32.034-37.72 62.886z" fill="#e6522c" fill-rule="nonzero"/></svg>