<svg xmlns="http://www.w3.org/2000/svg" enable-background="new 0 0 24 24" viewBox="0 0 24 24" id="redis">
  <path fill="#912626" d="M23.059,17.537c-1.28,0.668-7.916,3.395-9.328,4.132c-1.412,0.737-2.197,0.729-3.313,0.196c-1.115-0.534-8.176-3.386-9.448-3.994C0.334,17.568,0,17.312,0,17.069v-2.426c0,0,9.193-2.001,10.676-2.533c1.485-0.533,1.999-0.552,3.262-0.09c1.264,0.463,8.815,1.825,10.063,2.282l-0.001,2.392C24,16.935,23.712,17.197,23.059,17.537L23.059,17.537z"></path>
  <path fill="#C6302B" d="M23.059,15.126c-1.281,0.667-7.916,3.395-9.328,4.132c-1.413,0.737-2.197,0.729-3.313,0.195c-1.115-0.533-8.176-3.385-9.447-3.993c-1.272-0.608-1.299-1.027-0.05-1.516c1.249-0.49,8.272-3.244,9.755-3.777c1.485-0.532,1.999-0.552,3.262-0.089c1.263,0.463,7.858,3.088,9.107,3.545C24.292,14.082,24.34,14.458,23.059,15.126L23.059,15.126z"></path>
  <path fill="#912626" d="M23.059,13.612c-1.28,0.668-7.916,3.396-9.328,4.132c-1.412,0.737-2.197,0.73-3.313,0.196c-1.115-0.533-8.176-3.386-9.448-3.994C0.334,13.643,0,13.386,0,13.145v-2.426c0,0,9.193-2.001,10.676-2.534c1.485-0.532,1.999-0.552,3.262-0.089C15.201,8.559,22.752,9.921,24,10.378l-0.001,2.392C24,13.01,23.712,13.273,23.059,13.612L23.059,13.612z"></path>
  <path fill="#C6302B" d="M23.059,11.2c-1.281,0.668-7.916,3.395-9.328,4.133c-1.413,0.736-2.197,0.728-3.313,0.195c-1.115-0.533-8.176-3.385-9.447-3.993c-1.272-0.607-1.299-1.026-0.05-1.516C2.17,9.53,9.193,6.775,10.676,6.243c1.485-0.533,1.999-0.552,3.262-0.089c1.263,0.462,7.858,3.087,9.107,3.545C24.292,10.156,24.34,10.533,23.059,11.2L23.059,11.2z"></path>
  <path fill="#912626" d="M23.059,9.541c-1.28,0.668-7.916,3.396-9.328,4.133c-1.412,0.737-2.197,0.729-3.313,0.195c-1.115-0.534-8.176-3.386-9.448-3.993C0.334,9.572,0,9.315,0,9.074V6.647c0,0,9.193-2.001,10.676-2.533c1.485-0.532,1.999-0.552,3.262-0.089C15.201,4.488,22.752,5.85,24,6.307l-0.001,2.392C24,8.938,23.712,9.201,23.059,9.541L23.059,9.541z"></path>
  <path fill="#C6302B" d="M23.059,7.13c-1.281,0.668-7.916,3.396-9.328,4.132c-1.413,0.737-2.197,0.729-3.313,0.196c-1.115-0.533-8.176-3.386-9.447-3.994c-1.272-0.608-1.299-1.025-0.05-1.515c1.249-0.49,8.272-3.244,9.755-3.776c1.485-0.534,1.999-0.552,3.262-0.089c1.263,0.462,7.858,3.087,9.107,3.544C24.292,6.086,24.34,6.463,23.059,7.13L23.059,7.13z"></path>
  <path fill="#7E2121" d="M0,14.644L0,14.644l0,2.426c0,0.242,0.334,0.499,0.97,0.803c1.272,0.608,8.333,3.46,9.448,3.994c0.516,0.247,0.962,0.381,1.431,0.381c0.05,0,0.1-0.001,0.15-0.005V19.83c-0.05,0.003-0.101,0.005-0.15,0.005c-0.47,0-0.915-0.134-1.432-0.381c-1.115-0.533-8.176-3.385-9.447-3.993C0.322,15.15-0.003,14.89,0,14.644L0,14.644z"></path>
  <path fill="#AC2A25" d="M0.946,13.935c-0.008,0.003-0.017,0.007-0.025,0.01C0.309,14.184,0.003,14.407,0,14.644c-0.003,0.246,0.322,0.507,0.971,0.817c1.271,0.608,8.332,3.461,9.447,3.993c0.517,0.247,0.962,0.381,1.432,0.381c0.05,0,0.1-0.002,0.15-0.005v-1.513c-0.051,0.003-0.101,0.005-0.151,0.005c-0.469,0-0.915-0.134-1.431-0.381c-1.115-0.533-8.176-3.386-9.448-3.994C0.962,13.943,0.954,13.939,0.946,13.935L0.946,13.935z"></path>
  <path fill="#7E2121" d="M0,10.719L0,10.719l0,2.426c0,0.239,0.325,0.492,0.946,0.79c0.008,0.004,0.016,0.008,0.024,0.012c1.272,0.608,8.333,3.461,9.448,3.994c0.516,0.247,0.962,0.381,1.431,0.381c0.05,0,0.1-0.002,0.151-0.005v-2.412c-0.05,0.003-0.1,0.005-0.15,0.005c-0.47,0-0.915-0.134-1.432-0.381c-1.115-0.533-8.176-3.385-9.447-3.993C0.322,11.225-0.003,10.965,0,10.719L0,10.719z"></path>
  <path fill="#AC2A25" d="M1.115,9.944c-0.075,0.029-0.14,0.055-0.194,0.076C0.309,10.259,0.003,10.482,0,10.719c-0.003,0.246,0.322,0.507,0.971,0.817c1.271,0.608,8.332,3.46,9.447,3.993c0.517,0.247,0.962,0.381,1.432,0.381c0.05,0,0.099-0.002,0.15-0.005v-1.659c-0.05,0.003-0.1,0.005-0.15,0.005c-0.47,0-0.915-0.134-1.432-0.381C9.339,13.353,2.702,10.669,1.115,9.944L1.115,9.944z"></path>
  <path fill="#7E2121" d="M0,6.647L0,6.647l0,2.427c0,0.241,0.334,0.498,0.97,0.802c0.042,0.02,0.091,0.043,0.145,0.067c1.588,0.726,8.225,3.41,9.303,3.926c0.517,0.247,0.962,0.381,1.432,0.381c0.05,0,0.1-0.001,0.15-0.005v-2.412c-0.051,0.003-0.101,0.005-0.151,0.005c-0.469,0-0.914-0.134-1.431-0.38c-1.115-0.533-8.176-3.386-9.447-3.994C0.322,7.154-0.003,6.893,0,6.647L0,6.647z"></path>
  <path fill="#AC2A25" d="M12,1.793c-0.368,0.059-0.781,0.185-1.324,0.38C9.193,2.705,2.17,5.46,0.921,5.949C0.309,6.189,0.004,6.411,0,6.647c-0.003,0.246,0.321,0.506,0.971,0.817c1.271,0.608,8.332,3.461,9.447,3.994c0.516,0.246,0.962,0.38,1.431,0.38c0.05,0,0.1-0.001,0.151-0.005V1.793L12,1.793z"></path>
  <path fill="#621B1C" d="M17.371,5.074l3.266,1.291l-3.263,1.289L17.371,5.074L17.371,5.074z"></path>
  <path fill="#9A2928" d="M13.758,6.503l3.613-1.429l0.003,2.58L17.02,7.792L13.758,6.503L13.758,6.503z"></path>
  <path fill="#FFF" d="M6.945,5.388c1.629,0,2.949,0.511,2.949,1.143c0,0.631-1.32,1.143-2.949,1.143c-1.629,0-2.949-0.511-2.949-1.143C3.996,5.899,5.316,5.388,6.945,5.388L6.945,5.388z"></path>
  <path fill="#DEDEDE" d="M6.776,5.39C5.226,5.424,3.996,5.921,3.996,6.531c0,0.609,1.23,1.107,2.781,1.141V5.39L6.776,5.39z"></path>
  <polygon fill="#FFF" points="14.933 4.77 12.869 4.984 12.407 6.096 11.661 4.855 9.278 4.642 11.057 4 10.523 3.016 12.188 3.667 13.757 3.153 13.333 4.171 14.933 4.77"></polygon>
  <polygon fill="#FFF" points="12.284 10.162 8.433 8.565 13.951 7.718 12.284 10.162"></polygon>
  <polygon fill="#DEDEDE" points="10.523 3.016 11.057 4 9.278 4.642 11.661 4.855 12 5.418 12 3.593 10.523 3.016"></polygon>
  <polygon fill="#DEDEDE" points="12 8.018 8.433 8.565 12 10.044 12 8.018"></polygon>
</svg>
